<?xml version="1.0" encoding="UTF-8" standalone="no"?>
<!-- Created with Inkscape (http://www.inkscape.org/) -->

<svg
   width="128.02913mm"
   height="19.237309mm"
   viewBox="0 0 128.02913 19.237309"
   version="1.1"
   id="svg1"
   xmlns:xlink="http://www.w3.org/1999/xlink"
   xmlns="http://www.w3.org/2000/svg"
   xmlns:svg="http://www.w3.org/2000/svg">
  <defs
     id="defs1">
    <linearGradient
       id="linearGradient2">
      <stop
         style="stop-color:#817400;stop-opacity:1;"
         offset="0"
         id="stop2" />
      <stop
         style="stop-color:#ffeb60;stop-opacity:1;"
         offset="1"
         id="stop3" />
    </linearGradient>
    <linearGradient
       xlink:href="#linearGradient2"
       id="linearGradient3"
       x1="40.854801"
       y1="92.315536"
       x2="168.65904"
       y2="92.315536"
       gradientUnits="userSpaceOnUse"
       gradientTransform="translate(-39.99064,-85.409763)" />
  </defs>
  <g
     id="layer1"
     transform="translate(-0.63926198,-0.5416619)">
    <path
       style="font-size:14.1111px;font-family:Montserrat-Alt1;-inkscape-font-specification:Montserrat-Alt1;fill:url(#linearGradient3);stroke-width:0.264583"
       d="m 6.0711584,10.631101 q -1.1147769,0 -2.0743317,-0.381 Q 3.0372719,9.8691012 2.345828,9.1917684 1.6543841,8.5144356 1.2592733,7.597214 0.86416246,6.6658814 0.86416246,5.5934378 q 0,-1.0865547 0.39511084,-2.0037762 Q 1.6543841,2.6724401 2.345828,1.9951073 3.0372719,1.3177745 3.9968267,0.93677475 4.9563815,0.55577504 6.0711584,0.55577504 q 1.1147769,0 2.0602207,0.38099971 0.9595548,0.38099975 1.6509987,1.05833255 0.6914442,0.6632217 1.0865552,1.5945543 0.39511,0.9172215 0.39511,2.0037762 0,1.0865547 -0.39511,2.0178873 -0.395111,0.9172216 -1.0865552,1.5945544 -0.6914439,0.6632217 -1.6509987,1.0442215 -0.9454438,0.381 -2.0602207,0.381 z m 0,-0.9736663 q 0.8748882,0 1.6227766,-0.3104442 Q 8.4559344,9.0365463 9.0062673,8.5003245 9.5566002,7.9499915 9.8670444,7.2162143 10.177489,6.468326 10.177489,5.5934378 q 0,-0.8748882 -0.3104446,-1.6086654 Q 9.5566002,3.2368841 9.0062673,2.7006623 8.4559344,2.1503294 7.693935,1.8398852 6.9460466,1.529441 6.0711584,1.529441 q -0.8889993,0 -1.6509987,0.3104442 Q 3.6722714,2.1503294 3.1219385,2.7006623 2.5716056,3.2368841 2.2611614,3.9847724 1.9507172,4.7185496 1.9507172,5.5934378 q 0,0.8748882 0.3104442,1.6227765 0.3104442,0.7337772 0.8607771,1.2841102 0.5503329,0.5362218 1.2982212,0.846666 0.7619994,0.3104442 1.6509987,0.3104442 z m 11.0631126,0.028222 q 0.578555,0 1.072443,-0.1975554 0.508,-0.2116665 0.874889,-0.5785551 0.366888,-0.3809997 0.578555,-0.9031105 0.211666,-0.5362218 0.211666,-1.1853324 0,-0.6349995 -0.211666,-1.1571102 Q 19.448491,5.1277715 19.081603,4.7467718 18.714714,4.3657721 18.206714,4.1682167 17.712826,3.9565502 17.134271,3.9565502 q -0.592666,0 -1.100666,0.2116665 -0.493888,0.1975554 -0.860777,0.5785551 -0.366889,0.3809997 -0.578555,0.9172215 -0.197556,0.5221107 -0.197556,1.1571102 0,0.6491106 0.197556,1.1853324 0.211666,0.5221108 0.578555,0.9031105 0.366889,0.3668886 0.860777,0.5785551 0.508,0.1975554 1.100666,0.1975552 z M 14.410828,13.269876 H 13.366607 V 3.1098842 h 1.001888 v 1.4252211 q 0.451555,-0.7337772 1.185333,-1.1147769 0.747888,-0.3809997 1.650998,-0.3809997 0.804333,0 1.481666,0.282222 0.677333,0.2681109 1.171221,0.7761105 0.493889,0.4938885 0.776111,1.1853324 0.282222,0.6914439 0.282222,1.5381099 0,0.846666 -0.282222,1.5522211 -0.282222,0.6914439 -0.776111,1.1853324 -0.493888,0.493888 -1.171221,0.77611 -0.677333,0.268111 -1.481666,0.268111 -0.874888,0 -1.608665,-0.352777 Q 14.876495,9.8832123 14.410828,9.1635462 Z M 28.465498,6.3695483 Q 28.423164,5.8333265 28.197387,5.3958824 27.98572,4.9443272 27.647054,4.6197719 27.308388,4.2952166 26.842721,4.1258834 26.391166,3.9424391 25.854944,3.9424391 q -0.536222,0 -0.987777,0.1834443 -0.451555,0.1693332 -0.804333,0.4938885 -0.338666,0.3104442 -0.550332,0.7619994 -0.211667,0.4515552 -0.268111,0.987777 z m -2.342443,4.2333297 q -0.874888,0 -1.594554,-0.282222 -0.719666,-0.282222 -1.241777,-0.7761101 -0.508,-0.5079996 -0.790222,-1.1994435 -0.282222,-0.7055551 -0.282222,-1.5239989 0,-0.8325549 0.268111,-1.5239988 0.282222,-0.6914439 0.762,-1.1853324 0.493888,-0.5079996 1.15711,-0.7902216 0.663222,-0.282222 1.453443,-0.282222 0.790222,0 1.439332,0.282222 0.663222,0.2681109 1.143,0.7761105 0.479777,0.4938885 0.747888,1.1853324 0.268111,0.6914439 0.268111,1.5381099 0,0.070555 0,0.1552221 0,0.084667 -0.01411,0.1693332 h -6.194773 q 0.04233,0.564444 0.268111,1.0301104 0.239888,0.4656663 0.620888,0.8043327 0.381,0.3386664 0.888999,0.5221107 0.522111,0.1834443 1.128888,0.1834443 0.677333,0 1.255888,-0.2398887 0.578555,-0.2398887 0.987777,-0.7337772 l 0.592666,0.6773328 Q 28.49372,9.98199 27.745832,10.292434 q -0.733778,0.310444 -1.622777,0.310444 z m 9.172208,-7.5635493 q 0.677333,0 1.241777,0.1975554 0.564444,0.1975554 0.959555,0.6067773 0.409222,0.3951108 0.620888,0.987777 0.225778,0.5926662 0.225778,1.3969989 V 10.532323 H 37.299039 V 6.3413261 q 0,-1.1853324 -0.578555,-1.7638875 -0.564444,-0.5926662 -1.622776,-0.5926662 -1.185333,0 -1.876777,0.6914439 -0.691443,0.6914439 -0.691443,1.9614429 V 10.532323 H 31.485266 V 3.1098842 h 1.001888 v 1.3264434 q 0.409222,-0.6773328 1.114777,-1.0301103 0.719666,-0.3668886 1.693332,-0.3668886 z m 10.25877,7.5917723 q -1.114777,0 -2.06022,-0.381 Q 42.548369,9.8691012 41.856925,9.2058795 41.165481,8.5285467 40.77037,7.6113251 40.375259,6.6799925 40.375259,5.5934378 q 0,-1.0865547 0.395111,-2.0037762 0.395111,-0.9313326 1.086555,-1.5945543 0.691444,-0.6773328 1.636888,-1.05833255 0.959554,-0.38099971 2.074331,-0.38099971 1.100666,0 2.031999,0.36688861 0.931332,0.36688865 1.594554,1.10066585 L 48.503253,2.7147734 Q 47.896476,2.093885 47.17681,1.811663 46.457144,1.529441 45.610478,1.529441 q -0.889,0 -1.650999,0.3104442 -0.762,0.3104442 -1.326444,0.8607771 -0.550332,0.5362218 -0.860777,1.2841101 -0.310444,0.7337772 -0.310444,1.6086654 0,0.8748882 0.310444,1.6227765 0.310445,0.7337772 0.860777,1.2841102 0.564444,0.5362218 1.326444,0.846666 0.761999,0.3104442 1.650999,0.3104442 0.846666,0 1.566332,-0.282222 0.719666,-0.282222 1.326443,-0.9172215 l 0.691444,0.6914439 q -0.663222,0.7337772 -1.608665,1.1147769 -0.931333,0.366889 -2.031999,0.366889 z m 8.353762,-0.02822 q -0.818444,0 -1.509888,-0.282222 Q 51.706463,10.038434 51.198463,9.5445459 50.690464,9.0365463 50.408242,8.3451024 50.12602,7.6395473 50.12602,6.8211035 q 0,-0.8325549 0.282222,-1.5239988 0.282222,-0.6914439 0.790221,-1.1853324 0.508,-0.5079996 1.199444,-0.7902216 0.691444,-0.282222 1.509888,-0.282222 0.818443,0 1.509887,0.282222 0.691444,0.282222 1.199444,0.7902216 0.507999,0.4938885 0.790221,1.1853324 0.282222,0.6914439 0.282222,1.5239988 0,0.8184438 -0.282222,1.5239989 -0.282222,0.6914439 -0.790221,1.1994435 -0.508,0.4938881 -1.199444,0.7761101 -0.691444,0.282222 -1.509887,0.282222 z m 0,-0.9172211 q 0.592666,0 1.086554,-0.1975554 0.508,-0.2116665 0.874888,-0.5926662 0.366889,-0.3809997 0.564444,-0.9031105 0.211667,-0.5362218 0.211667,-1.1712213 0,-0.6491106 -0.211667,-1.1712213 Q 56.236126,5.1136604 55.869237,4.7467718 55.502349,4.3657721 54.994349,4.1682167 54.500461,3.9565502 53.907795,3.9565502 q -0.578556,0 -1.086555,0.2116665 -0.493889,0.1975554 -0.860777,0.5785551 -0.366889,0.3668886 -0.578555,0.9031104 -0.211667,0.5221107 -0.211667,1.1712213 0,0.6349995 0.211667,1.1712213 0.211666,0.5221108 0.578555,0.9031105 0.366888,0.3809997 0.860777,0.5926662 0.507999,0.1975554 1.086555,0.1975554 z m 9.62377,-6.6463282 q 0.677332,0 1.241776,0.1975554 0.564444,0.1975554 0.959555,0.6067773 0.409222,0.3951108 0.620889,0.987777 0.225777,0.5926662 0.225777,1.3969989 V 10.532323 H 65.535341 V 6.3413261 q 0,-1.1853324 -0.578555,-1.7638875 -0.564444,-0.5926662 -1.622777,-0.5926662 -1.185332,0 -1.876776,0.6914439 -0.691444,0.6914439 -0.691444,1.9614429 V 10.532323 H 59.721568 V 3.1098842 h 1.001888 V 4.4363276 Q 61.132678,3.7589948 61.838233,3.4062173 62.557899,3.0393287 63.531565,3.0393287 Z M 71.41967,10.532323 V 1.5999965 H 67.948339 V 0.65455275 h 8.015105 V 1.5999965 h -3.471331 v 8.9323265 z m 14.111105,0 H 84.345442 L 82.101777,7.3714364 Q 81.749,7.4137697 81.325667,7.4137697 H 78.701002 V 10.532323 H 77.614447 V 6.4824371 h 3.682998 q 1.481665,0 2.229553,-0.6349995 0.762,-0.6349995 0.762,-1.8062208 0,-1.1712213 -0.762,-1.8062208 Q 82.77911,1.5999965 81.297445,1.5999965 H 77.614447 V 0.65455275 h 3.71122 q 0.945443,0 1.693332,0.2398887 0.761999,0.22577765 1.28411,0.66322175 0.522111,0.4374441 0.790222,1.0724436 0.282222,0.6208884 0.282222,1.41111 0,1.1712213 -0.592667,1.9614429 -0.578555,0.7902216 -1.650998,1.1429991 z m 2.300118,0 V 0.65455275 h 1.086555 V 10.532323 Z m 4.275658,-9.87777025 h 4.289774 q 1.66511,0 2.568221,0.66322175 0.90311,0.6632217 0.90311,1.8767763 0,0.846666 -0.409222,1.41111 -0.409222,0.5503329 -1.072443,0.8184438 0.931332,0.2257776 1.467554,0.846666 0.536225,0.6067773 0.536225,1.6227765 0,1.2699991 -0.931336,1.961443 -0.931332,0.6773329 -2.779887,0.6773329 H 92.106551 V 9.6433236 h 4.543774 q 1.298221,0 1.975554,-0.4374441 0.677333,-0.4374441 0.677333,-1.396999 0,-0.9595548 -0.677333,-1.3969989 Q 97.948546,5.9744375 96.650325,5.9744375 H 92.106551 V 5.0713271 h 4.205108 q 1.185332,0 1.820332,-0.4374441 0.64911,-0.4374441 0.64911,-1.3264434 0,-0.8889993 -0.64911,-1.3264434 -0.635,-0.4374441 -1.820332,-0.4374441 H 92.106551 Z M 106.75386,10.631101 q -1.905,0 -2.99155,-1.1006662 -1.08656,-1.1006658 -1.08656,-3.231442 V 0.65455275 h 1.08656 V 6.2707706 q 0,1.7497764 0.77611,2.5682203 0.77611,0.8184438 2.21544,0.8184438 1.45345,0 2.22956,-0.8184438 0.77611,-0.8184439 0.77611,-2.5682203 V 0.65455275 h 1.05833 V 6.2989928 q 0,2.1448873 -1.08656,3.2455531 -1.07244,1.0865551 -2.97744,1.0865551 z m 8.91822,-0.09878 V 1.5999965 h -3.47133 V 0.65455275 h 8.0151 V 1.5999965 h -3.47133 v 8.9323265 z m 6.19477,-5.475107 h 6.80155 v 0.9172215 h -6.80155 z m 0,-4.51555206 h 6.80155 V 1.4871077 h -6.80155 z m 0,9.99065906 h 6.80155 V 9.5868792 h -6.80155 z"
       id="text1"
       aria-label="OpenConTRIBUTE" />
    <path
       d="m 39.490945,103.88768 h 2.033411 q 0.519994,0 0.931333,0.13194 0.4191,0.12418 0.706261,0.36477 0.287161,0.2406 0.434622,0.58985 0.155222,0.34148 0.155222,0.77611 0,0.43462 -0.155222,0.78387 -0.147461,0.34149 -0.434622,0.58208 -0.287161,0.2406 -0.706261,0.37254 -0.411339,0.12417 -0.931333,0.12417 h -1.443567 v 1.70745 h -0.597605 v -2.22744 h 2.025649 q 0.814917,0 1.226256,-0.34925 0.4191,-0.34925 0.4191,-0.99342 0,-0.64418 -0.4191,-0.99343 -0.411339,-0.34925 -1.226256,-0.34925 h -2.025649 z m 6.883765,5.43278 h -0.574323 v -4.08235 h 0.551039 v 0.77611 q 0.194028,-0.39581 0.574322,-0.60536 0.388056,-0.20955 0.946856,-0.20955 v 0.5588 q -0.03881,0 -0.06985,0 -0.03104,-0.008 -0.06209,-0.008 -0.636411,0 -1.001183,0.38805 -0.364772,0.38806 -0.364772,1.10208 z m 5.153028,0.0388 q -0.450144,0 -0.830439,-0.15522 -0.380294,-0.15522 -0.659694,-0.42686 -0.2794,-0.2794 -0.434622,-0.65969 -0.155222,-0.38806 -0.155222,-0.8382 0,-0.45791 0.155222,-0.8382 0.155222,-0.3803 0.434622,-0.65194 0.2794,-0.2794 0.659694,-0.43462 0.380295,-0.15522 0.830439,-0.15522 0.450145,0 0.830439,0.15522 0.380294,0.15522 0.659694,0.43462 0.2794,0.27164 0.434622,0.65194 0.155223,0.38029 0.155223,0.8382 0,0.45014 -0.155223,0.8382 -0.155222,0.38029 -0.434622,0.65969 -0.2794,0.27164 -0.659694,0.42686 -0.380294,0.15522 -0.830439,0.15522 z m 0,-0.50447 q 0.325967,0 0.597606,-0.10865 0.2794,-0.11642 0.481188,-0.32597 0.201789,-0.20955 0.310445,-0.49671 0.116417,-0.29492 0.116417,-0.64417 0,-0.35702 -0.116417,-0.64418 -0.108656,-0.29492 -0.310445,-0.49671 -0.201788,-0.20955 -0.481188,-0.3182 -0.271639,-0.11642 -0.597606,-0.11642 -0.318205,0 -0.597605,0.11642 -0.271639,0.10865 -0.473428,0.3182 -0.201789,0.20179 -0.318205,0.49671 -0.116417,0.28716 -0.116417,0.64418 0,0.34925 0.116417,0.64417 0.116416,0.28716 0.318205,0.49671 0.201789,0.20955 0.473428,0.32597 0.2794,0.10865 0.597605,0.10865 z m 5.936904,-0.20179 q 0.333727,0 0.613127,-0.10865 0.2794,-0.10866 0.481189,-0.30269 0.20955,-0.19402 0.318206,-0.46566 0.116416,-0.27164 0.116416,-0.59761 0,-0.32597 -0.116416,-0.5976 -0.108656,-0.27164 -0.318206,-0.46567 -0.201789,-0.19403 -0.481189,-0.30268 -0.2794,-0.10866 -0.613127,-0.10866 -0.333728,0 -0.620889,0.10866 -0.2794,0.10865 -0.481189,0.30268 -0.201789,0.19403 -0.318205,0.46567 -0.116417,0.27163 -0.116417,0.5976 0,0.32597 0.116417,0.59761 0.116416,0.27164 0.318205,0.46566 0.201789,0.19403 0.481189,0.30269 0.287161,0.10865 0.620889,0.10865 z m -0.06209,0.50447 q -0.442383,0 -0.814917,-0.1397 -0.372533,-0.14746 -0.651933,-0.41133 -0.271639,-0.26388 -0.426861,-0.62089 -0.155222,-0.36478 -0.155222,-0.80716 0,-0.44238 0.155222,-0.79939 0.155222,-0.36478 0.426861,-0.62865 0.2794,-0.26388 0.651933,-0.40358 0.372534,-0.14746 0.814917,-0.14746 0.512233,0 0.923572,0.20179 0.4191,0.19402 0.682978,0.58984 v -0.75283 h 0.551038 v 3.57788 q 0,1.06327 -0.519994,1.55222 -0.519994,0.49671 -1.5367,0.49671 -0.2794,0 -0.551039,-0.0466 -0.271638,-0.0388 -0.519994,-0.11641 -0.248355,-0.0776 -0.465667,-0.19403 -0.20955,-0.11642 -0.372533,-0.27164 l 0.287161,-0.43462 q 0.294922,0.25611 0.714022,0.40357 0.4191,0.15523 0.892528,0.15523 0.776111,0 1.133122,-0.36478 0.364772,-0.35701 0.364772,-1.10983 v -0.48895 q -0.263878,0.37253 -0.675216,0.56656 -0.411339,0.19402 -0.90805,0.19402 z m 5.284975,0.16299 h -0.574322 v -4.08235 h 0.551039 v 0.77611 q 0.194028,-0.39581 0.574322,-0.60536 0.388055,-0.20955 0.946855,-0.20955 v 0.5588 q -0.0388,0 -0.06985,0 -0.03104,-0.008 -0.06209,-0.008 -0.636411,0 -1.001183,0.38805 -0.364772,0.38806 -0.364772,1.10208 z m 6.511223,-2.28953 q -0.02328,-0.29492 -0.147461,-0.53552 -0.116417,-0.24835 -0.302683,-0.42686 -0.186267,-0.1785 -0.442384,-0.27164 -0.248355,-0.10089 -0.543277,-0.10089 -0.294923,0 -0.543278,0.10089 -0.248356,0.0931 -0.442383,0.27164 -0.186267,0.17075 -0.302684,0.4191 -0.116416,0.24836 -0.147461,0.54328 z m -1.288344,2.32833 q -0.481189,0 -0.877006,-0.15522 -0.395816,-0.15522 -0.682977,-0.42686 -0.2794,-0.2794 -0.434622,-0.65969 -0.155223,-0.38806 -0.155223,-0.8382 0,-0.45791 0.147461,-0.8382 0.155223,-0.3803 0.4191,-0.65194 0.271639,-0.2794 0.636411,-0.43462 0.364773,-0.15522 0.799395,-0.15522 0.434622,0 0.791633,0.15522 0.364772,0.14746 0.62865,0.42686 0.263877,0.27164 0.411339,0.65193 0.147461,0.3803 0.147461,0.84597 0,0.0388 0,0.0854 0,0.0466 -0.0078,0.0931 H 66.32714 q 0.02328,0.31045 0.147461,0.56656 0.131939,0.25612 0.341489,0.44239 0.20955,0.18626 0.48895,0.28716 0.287161,0.10089 0.620889,0.10089 0.372533,0 0.690739,-0.13194 0.318205,-0.13194 0.543277,-0.40358 l 0.325967,0.37254 q -0.271639,0.32596 -0.682978,0.49671 -0.403577,0.17074 -0.892528,0.17074 z m 5.090937,0 q -0.256117,0 -0.504472,-0.0388 -0.240594,-0.0388 -0.457906,-0.1009 -0.217311,-0.0699 -0.403577,-0.16298 -0.178506,-0.0931 -0.302684,-0.20179 l 0.248356,-0.45014 q 0.248355,0.19402 0.636411,0.32596 0.388055,0.13194 0.814917,0.13194 0.582083,0 0.830438,-0.1785 0.256117,-0.17851 0.256117,-0.48119 0,-0.19403 -0.116417,-0.31045 -0.108655,-0.11641 -0.294922,-0.18626 -0.186267,-0.0698 -0.426861,-0.10866 -0.240594,-0.0466 -0.48895,-0.0931 -0.240594,-0.0466 -0.481189,-0.10866 -0.240594,-0.0699 -0.426861,-0.19403 -0.186266,-0.12417 -0.302683,-0.3182 -0.108656,-0.20179 -0.108656,-0.50447 0,-0.25612 0.108656,-0.47343 0.108656,-0.21731 0.318205,-0.37253 0.20955,-0.15523 0.512234,-0.2406 0.302683,-0.0931 0.690738,-0.0931 0.395817,0 0.791634,0.10865 0.403577,0.1009 0.659694,0.2794 l -0.256117,0.45015 q -0.271638,-0.17851 -0.582083,-0.25612 -0.302683,-0.0854 -0.613128,-0.0854 -0.543277,0 -0.799394,0.18627 -0.256116,0.18626 -0.256116,0.47342 0,0.27164 0.194027,0.40358 0.194028,0.13194 0.48895,0.20955 0.294922,0.0699 0.636411,0.12418 0.341489,0.0543 0.636411,0.17074 0.294922,0.10866 0.48895,0.32597 0.194028,0.20955 0.194028,0.60537 0,0.53551 -0.442383,0.85372 -0.442384,0.31044 -1.241778,0.31044 z m 4.834824,0 q -0.256117,0 -0.504472,-0.0388 -0.240595,-0.0388 -0.457906,-0.1009 -0.217311,-0.0699 -0.403578,-0.16298 -0.178505,-0.0931 -0.302683,-0.20179 l 0.248356,-0.45014 q 0.248355,0.19402 0.636411,0.32596 0.388055,0.13194 0.814916,0.13194 0.582083,0 0.830439,-0.1785 0.256116,-0.17851 0.256116,-0.48119 0,-0.19403 -0.116416,-0.31045 -0.108656,-0.11641 -0.294922,-0.18626 -0.186267,-0.0698 -0.426861,-0.10866 -0.240595,-0.0466 -0.48895,-0.0931 -0.240595,-0.0466 -0.481189,-0.10866 -0.240595,-0.0699 -0.426861,-0.19403 -0.186267,-0.12417 -0.302683,-0.3182 -0.108656,-0.20179 -0.108656,-0.50447 0,-0.25612 0.108656,-0.47343 0.108655,-0.21731 0.318205,-0.37253 0.20955,-0.15523 0.512233,-0.2406 0.302684,-0.0931 0.690739,-0.0931 0.395817,0 0.791633,0.10865 0.403578,0.1009 0.659695,0.2794 l -0.256117,0.45015 q -0.271639,-0.17851 -0.582083,-0.25612 -0.302684,-0.0854 -0.613128,-0.0854 -0.543278,0 -0.799394,0.18627 -0.256117,0.18626 -0.256117,0.47342 0,0.27164 0.194028,0.40358 0.194028,0.13194 0.48895,0.20955 0.294922,0.0699 0.636411,0.12418 0.341489,0.0543 0.636411,0.17074 0.294922,0.10866 0.48895,0.32597 0.194028,0.20955 0.194028,0.60537 0,0.53551 -0.442384,0.85372 -0.442383,0.31044 -1.241777,0.31044 z m 3.841397,-2.84832 h 3.399367 v 0.51999 H 82.27517 v 2.28953 h -0.597606 z m 0,-2.62326 h 3.740855 v 0.51999 h -3.740855 z m 7.364946,5.47158 q -0.450145,0 -0.830439,-0.15522 -0.380294,-0.15522 -0.659694,-0.42686 -0.2794,-0.2794 -0.434623,-0.65969 -0.155222,-0.38806 -0.155222,-0.8382 0,-0.45791 0.155222,-0.8382 0.155223,-0.3803 0.434623,-0.65194 0.2794,-0.2794 0.659694,-0.43462 0.380294,-0.15522 0.830439,-0.15522 0.450144,0 0.830438,0.15522 0.380295,0.15522 0.659695,0.43462 0.2794,0.27164 0.434622,0.65194 0.155222,0.38029 0.155222,0.8382 0,0.45014 -0.155222,0.8382 -0.155222,0.38029 -0.434622,0.65969 -0.2794,0.27164 -0.659695,0.42686 -0.380294,0.15522 -0.830438,0.15522 z m 0,-0.50447 q 0.325966,0 0.597605,-0.10865 0.2794,-0.11642 0.481189,-0.32597 0.201789,-0.20955 0.310444,-0.49671 0.116417,-0.29492 0.116417,-0.64417 0,-0.35702 -0.116417,-0.64418 -0.108655,-0.29492 -0.310444,-0.49671 -0.201789,-0.20955 -0.481189,-0.3182 -0.271639,-0.11642 -0.597605,-0.11642 -0.318206,0 -0.597606,0.11642 -0.271639,0.10865 -0.473428,0.3182 -0.201788,0.20179 -0.318205,0.49671 -0.116417,0.28716 -0.116417,0.64418 0,0.34925 0.116417,0.64417 0.116417,0.28716 0.318205,0.49671 0.201789,0.20955 0.473428,0.32597 0.2794,0.10865 0.597606,0.10865 z m 4.803779,0.46567 h -0.574322 v -4.08235 h 0.551039 v 0.77611 q 0.194028,-0.39581 0.574322,-0.60536 0.388055,-0.20955 0.946855,-0.20955 v 0.5588 q -0.0388,0 -0.06985,0 -0.03104,-0.008 -0.06209,-0.008 -0.636411,0 -1.001183,0.38805 -0.364772,0.38806 -0.364772,1.10208 z m 5.859303,0.0543 q -0.613128,0 -1.133122,-0.20955 -0.519995,-0.20955 -0.900289,-0.57433 -0.380295,-0.37253 -0.597606,-0.877 -0.217311,-0.51224 -0.217311,-1.10984 0,-0.59761 0.217311,-1.10208 0.217311,-0.51223 0.597606,-0.877 0.380294,-0.37254 0.900289,-0.58209 0.527755,-0.20955 1.140883,-0.20955 0.605367,0 1.117597,0.20179 0.51224,0.20179 0.87701,0.60537 l -0.3803,0.38029 q -0.33372,-0.34149 -0.72954,-0.49671 -0.39582,-0.15522 -0.861484,-0.15522 -0.48895,0 -0.90805,0.17074 -0.4191,0.17075 -0.729544,0.47343 -0.302683,0.29492 -0.473428,0.70626 -0.170744,0.40358 -0.170744,0.88477 0,0.48119 0.170744,0.89253 0.170745,0.40357 0.473428,0.70626 0.310444,0.29492 0.729544,0.46566 0.4191,0.17075 0.90805,0.17075 0.465664,0 0.861484,-0.15522 0.39582,-0.15523 0.72954,-0.50448 l 0.3803,0.3803 q -0.36477,0.40358 -0.88477,0.61313 -0.51223,0.20179 -1.117598,0.20179 z m 5.626458,-0.0155 q -0.45015,0 -0.83044,-0.15522 -0.3803,-0.15522 -0.6597,-0.42686 -0.2794,-0.2794 -0.43462,-0.65969 -0.15522,-0.38806 -0.15522,-0.8382 0,-0.45791 0.15522,-0.8382 0.15522,-0.3803 0.43462,-0.65194 0.2794,-0.2794 0.6597,-0.43462 0.38029,-0.15522 0.83044,-0.15522 0.45014,0 0.83043,0.15522 0.3803,0.15522 0.6597,0.43462 0.2794,0.27164 0.43462,0.65194 0.15522,0.38029 0.15522,0.8382 0,0.45014 -0.15522,0.8382 -0.15522,0.38029 -0.43462,0.65969 -0.2794,0.27164 -0.6597,0.42686 -0.38029,0.15522 -0.83043,0.15522 z m 0,-0.50447 q 0.32596,0 0.5976,-0.10865 0.2794,-0.11642 0.48119,-0.32597 0.20179,-0.20955 0.31044,-0.49671 0.11642,-0.29492 0.11642,-0.64417 0,-0.35702 -0.11642,-0.64418 -0.10865,-0.29492 -0.31044,-0.49671 -0.20179,-0.20955 -0.48119,-0.3182 -0.27164,-0.11642 -0.5976,-0.11642 -0.31821,0 -0.59761,0.11642 -0.27164,0.10865 -0.47343,0.3182 -0.20179,0.20179 -0.3182,0.49671 -0.11642,0.28716 -0.11642,0.64418 0,0.34925 0.11642,0.64417 0.11641,0.28716 0.3182,0.49671 0.20179,0.20955 0.47343,0.32597 0.2794,0.10865 0.59761,0.10865 z m 9.3285,-3.65548 q 0.74507,0 1.19521,0.44238 0.45014,0.43462 0.45014,1.31163 v 2.36714 h -0.57432 v -2.30505 q 0,-0.65194 -0.30268,-0.97014 -0.30268,-0.32597 -0.85372,-0.32597 -0.62089,0 -0.98566,0.3803 -0.36478,0.38029 -0.36478,1.07879 v 2.14207 h -0.57432 v -2.30505 q 0,-0.65194 -0.30268,-0.97014 -0.30269,-0.32597 -0.86149,-0.32597 -0.62088,0 -0.98566,0.3803 -0.36477,0.38029 -0.36477,1.07879 v 2.14207 h -0.57432 v -4.08235 h 0.55104 v 0.72179 q 0.21731,-0.36478 0.5976,-0.5588 0.3803,-0.20179 0.88477,-0.20179 0.51223,0 0.89253,0.21731 0.38029,0.20955 0.56656,0.63641 0.21731,-0.39582 0.63641,-0.62089 0.4191,-0.23283 0.97014,-0.23283 z m 9.25865,0 q 0.74507,0 1.19521,0.44238 0.45015,0.43462 0.45015,1.31163 v 2.36714 h -0.57433 v -2.30505 q 0,-0.65194 -0.30268,-0.97014 -0.30268,-0.32597 -0.85372,-0.32597 -0.62089,0 -0.98566,0.3803 -0.36477,0.38029 -0.36477,1.07879 v 2.14207 h -0.57433 v -2.30505 q 0,-0.65194 -0.30268,-0.97014 -0.30268,-0.32597 -0.86148,-0.32597 -0.62089,0 -0.98566,0.3803 -0.36478,0.38029 -0.36478,1.07879 v 2.14207 h -0.57432 v -4.08235 h 0.55104 v 0.72179 q 0.21731,-0.36478 0.59761,-0.5588 0.38029,-0.20179 0.88476,-0.20179 0.51224,0 0.89253,0.21731 0.38029,0.20955 0.56656,0.63641 0.21731,-0.39582 0.63641,-0.62089 0.4191,-0.23283 0.97014,-0.23283 z m 5.86705,4.15995 q -0.45015,0 -0.83044,-0.15522 -0.3803,-0.15522 -0.6597,-0.42686 -0.2794,-0.2794 -0.43462,-0.65969 -0.15522,-0.38806 -0.15522,-0.8382 0,-0.45791 0.15522,-0.8382 0.15522,-0.3803 0.43462,-0.65194 0.2794,-0.2794 0.6597,-0.43462 0.38029,-0.15522 0.83044,-0.15522 0.45014,0 0.83044,0.15522 0.38029,0.15522 0.65969,0.43462 0.2794,0.27164 0.43462,0.65194 0.15522,0.38029 0.15522,0.8382 0,0.45014 -0.15522,0.8382 -0.15522,0.38029 -0.43462,0.65969 -0.2794,0.27164 -0.65969,0.42686 -0.3803,0.15522 -0.83044,0.15522 z m 0,-0.50447 q 0.32596,0 0.5976,-0.10865 0.2794,-0.11642 0.48119,-0.32597 0.20179,-0.20955 0.31045,-0.49671 0.11641,-0.29492 0.11641,-0.64417 0,-0.35702 -0.11641,-0.64418 -0.10866,-0.29492 -0.31045,-0.49671 -0.20179,-0.20955 -0.48119,-0.3182 -0.27164,-0.11642 -0.5976,-0.11642 -0.31821,0 -0.59761,0.11642 -0.27164,0.10865 -0.47343,0.3182 -0.20179,0.20179 -0.3182,0.49671 -0.11642,0.28716 -0.11642,0.64418 0,0.34925 0.11642,0.64417 0.11641,0.28716 0.3182,0.49671 0.20179,0.20955 0.47343,0.32597 0.2794,0.10865 0.59761,0.10865 z m 6.32496,-3.65548 q 0.37253,0 0.68298,0.10865 0.31044,0.10866 0.52775,0.33373 0.22507,0.21731 0.34149,0.54328 0.12418,0.32597 0.12418,0.76835 v 2.36714 h -0.57432 v -2.30505 q 0,-0.65194 -0.31821,-0.97014 -0.31044,-0.32597 -0.89253,-0.32597 -0.65193,0 -1.03223,0.3803 -0.38029,0.38029 -0.38029,1.07879 v 2.14207 h -0.57432 v -4.08235 h 0.55104 v 0.72955 q 0.22507,-0.37254 0.61312,-0.56656 0.39582,-0.20179 0.93134,-0.20179 z m 6.6742,4.17548 q -0.61313,0 -1.13312,-0.20955 -0.52,-0.20955 -0.90029,-0.57433 -0.38029,-0.37253 -0.5976,-0.877 -0.21732,-0.51224 -0.21732,-1.10984 0,-0.59761 0.21732,-1.10208 0.21731,-0.51223 0.5976,-0.877 0.38029,-0.37254 0.90029,-0.58209 0.52775,-0.20955 1.14088,-0.20955 0.60537,0 1.1176,0.20179 0.51224,0.20179 0.87701,0.60537 l -0.3803,0.38029 q -0.33372,-0.34149 -0.72954,-0.49671 -0.39582,-0.15522 -0.86148,-0.15522 -0.48895,0 -0.90805,0.17074 -0.4191,0.17075 -0.72955,0.47343 -0.30268,0.29492 -0.47343,0.70626 -0.17074,0.40358 -0.17074,0.88477 0,0.48119 0.17074,0.89253 0.17075,0.40357 0.47343,0.70626 0.31045,0.29492 0.72955,0.46566 0.4191,0.17075 0.90805,0.17075 0.46566,0 0.86148,-0.15522 0.39582,-0.15523 0.72954,-0.50448 l 0.3803,0.3803 q -0.36477,0.40358 -0.88477,0.61313 -0.51223,0.20179 -1.1176,0.20179 z m 6.5966,-1.94028 h -1.26506 q -0.29492,0 -0.49671,0.0543 -0.19403,0.0543 -0.31821,0.15522 -0.11641,0.0931 -0.17074,0.22507 -0.0466,0.12418 -0.0466,0.2794 0,0.34925 0.26388,0.5588 0.26388,0.20179 0.74507,0.20179 0.46566,0 0.79939,-0.20955 0.33373,-0.20955 0.48895,-0.60537 z m -1.37371,1.92475 q -0.6985,0 -1.10208,-0.32596 -0.39582,-0.32597 -0.39582,-0.86149 0,-0.24059 0.0776,-0.45014 0.0854,-0.20955 0.27164,-0.36477 0.19403,-0.16299 0.49671,-0.25612 0.30269,-0.0931 0.74507,-0.0931 h 1.28058 v -0.23284 q 0,-0.51999 -0.28716,-0.79163 -0.28716,-0.2794 -0.86148,-0.2794 -0.39582,0 -0.75283,0.13194 -0.35701,0.12418 -0.60537,0.34149 l -0.24835,-0.42686 q 0.31044,-0.26388 0.7373,-0.40358 0.43463,-0.14746 0.92358,-0.14746 0.79939,0 1.23401,0.40358 0.43462,0.39581 0.43462,1.19521 v 2.52236 h -0.55104 v -0.62865 q -0.18626,0.3182 -0.54327,0.49671 -0.34925,0.17074 -0.85372,0.17074 z m 6.15421,0 q -0.39582,0 -0.71402,-0.10865 -0.31821,-0.10866 -0.54328,-0.32597 -0.22507,-0.22507 -0.34925,-0.55104 -0.12418,-0.32596 -0.12418,-0.76835 v -2.36714 h 0.57432 v 2.30505 q 0,0.65194 0.31821,0.9779 0.31821,0.31821 0.90029,0.31821 0.62865,0 1.00118,-0.3803 0.37254,-0.38029 0.37254,-1.07879 v -2.14207 h 0.57432 v 4.08235 h -0.55104 v -0.72179 q -0.21731,0.36478 -0.59761,0.56657 -0.37253,0.19402 -0.86148,0.19402 z m 5.67302,0 q -0.25612,0 -0.50447,-0.0388 -0.2406,-0.0388 -0.45791,-0.1009 -0.21731,-0.0699 -0.40357,-0.16298 -0.17851,-0.0931 -0.30269,-0.20179 l 0.24836,-0.45014 q 0.24835,0.19402 0.63641,0.32596 0.38805,0.13194 0.81492,0.13194 0.58208,0 0.83043,-0.1785 0.25612,-0.17851 0.25612,-0.48119 0,-0.19403 -0.11642,-0.31045 -0.10865,-0.11641 -0.29492,-0.18626 -0.18627,-0.0698 -0.42686,-0.10866 -0.24059,-0.0466 -0.48895,-0.0931 -0.24059,-0.0466 -0.48119,-0.10866 -0.24059,-0.0699 -0.42686,-0.19403 -0.18627,-0.12417 -0.30268,-0.3182 -0.10866,-0.20179 -0.10866,-0.50447 0,-0.25612 0.10866,-0.47343 0.10865,-0.21731 0.3182,-0.37253 0.20955,-0.15523 0.51224,-0.2406 0.30268,-0.0931 0.69074,-0.0931 0.39581,0 0.79163,0.10865 0.40358,0.1009 0.65969,0.2794 l -0.25611,0.45015 q -0.27164,-0.17851 -0.58209,-0.25612 -0.30268,-0.0854 -0.61312,-0.0854 -0.54328,0 -0.7994,0.18627 -0.25612,0.18626 -0.25612,0.47342 0,0.27164 0.19403,0.40358 0.19403,0.13194 0.48895,0.20955 0.29492,0.0699 0.63641,0.12418 0.34149,0.0543 0.63641,0.17074 0.29493,0.10866 0.48895,0.32597 0.19403,0.20955 0.19403,0.60537 0,0.53551 -0.44238,0.85372 -0.44239,0.31044 -1.24178,0.31044 z m 6.75958,-2.32833 q -0.0233,-0.29492 -0.14746,-0.53552 -0.11642,-0.24835 -0.30268,-0.42686 -0.18627,-0.1785 -0.44239,-0.27164 -0.24835,-0.10089 -0.54328,-0.10089 -0.29492,0 -0.54327,0.10089 -0.24836,0.0931 -0.44239,0.27164 -0.18626,0.17075 -0.30268,0.4191 -0.11642,0.24836 -0.14746,0.54328 z m -1.28834,2.32833 q -0.48119,0 -0.87701,-0.15522 -0.39582,-0.15522 -0.68298,-0.42686 -0.2794,-0.2794 -0.43462,-0.65969 -0.15522,-0.38806 -0.15522,-0.8382 0,-0.45791 0.14746,-0.8382 0.15522,-0.3803 0.4191,-0.65194 0.27164,-0.2794 0.63641,-0.43462 0.36477,-0.15522 0.79939,-0.15522 0.43463,0 0.79164,0.15522 0.36477,0.14746 0.62865,0.42686 0.26387,0.27164 0.41134,0.65193 0.14746,0.3803 0.14746,0.84597 0,0.0388 0,0.0854 0,0.0466 -0.008,0.0931 h -3.40713 q 0.0233,0.31045 0.14746,0.56656 0.13194,0.25612 0.34149,0.44239 0.20955,0.18626 0.48895,0.28716 0.28716,0.10089 0.62089,0.10089 0.37253,0 0.69074,-0.13194 0.3182,-0.13194 0.54327,-0.40358 l 0.32597,0.37254 q -0.27164,0.32596 -0.68298,0.49671 -0.40357,0.17074 -0.89252,0.17074 z"
       id="text2"
       style="font-size:7.76111px;line-height:0;font-family:Montserrat-Alt1;-inkscape-font-specification:Montserrat-Alt1;letter-spacing:1.03188px;white-space:pre;fill:#191f86;stroke-width:0.264583"
       transform="translate(-38.843922,-91.08595)"
       aria-label="ProgressForCommonCause" />
  </g>
</svg>
